# File created by Blade
# Date/Time:  Wed Jan 21 17:16:23 2015
# Frame Rate: 120.000 fps
#------------------------------------------------------
:FULLY-SPECIFIED
:DEGREES
1837
root 21.603872 5.559319 -15.028550 -191.704385 -13.588005 -221.482926
Spine 36.987480 -8.296608 -13.666081
Head 3.591995 27.976317 -31.359383
LeftShoulder -15.023434 -20.502484 -11.880787
LeftArm -26.606664 3.242384 -61.108424
LeftForeArm -13.170384 -0.000000 25.041890
LeftHand -2.803822 -0.000000 -7.101065
LeftHandThumb1 -26.253704 0.000000 33.147579
RightShoulder -2.752304 -24.162644 -20.620170
RightArm -9.138859 -26.208405 68.826570
RightForeArm -57.214372 -0.000000 77.469009
RightHand -8.051545 -0.000000 -10.376982
RightHandThumb1 -24.326973 -0.000000 -32.862282
LeftUpLeg -12.273127 21.158191 17.878242
LeftLeg 148.380293 -0.000000 -0.000000
LeftFoot 47.425031 1.983434 19.503647
LeftToeBase 36.413483 -0.000000 -0.000000
RightUpLeg -104.214975 -9.659274 36.920873
RightLeg 126.199454 -0.000000 -0.000000
RightFoot 29.724915 -11.135527 4.206985
RightToeBase 38.917357 -0.000000 -0.000000
1838
root 21.667824 5.574110 -15.022853 -191.673135 -13.625246 -221.881471
Spine 37.051960 -8.140923 -13.773755
Head 3.942100 28.870910 -31.499832
LeftShoulder -14.962627 -20.612332 -12.510835
LeftArm -25.976158 3.957966 -60.981842
LeftForeArm -14.053471 -0.000000 23.710997
LeftHand -2.552449 -0.000000 -8.109587
LeftHandThumb1 -26.253704 0.000000 33.147579
RightShoulder -2.746143 -24.025216 -20.870185
RightArm -9.409847 -26.542230 69.365983
RightForeArm -57.364265 -0.000000 77.457814
RightHand -8.213781 -0.000000 -10.960999
RightHandThumb1 -24.326973 -0.000000 -32.862282
LeftUpLeg -12.312906 21.183229 17.555144
LeftLeg 148.162802 -0.000000 -0.000000
LeftFoot 47.776333 2.282041 19.423955
LeftToeBase 37.806121 -0.000000 -0.000000
RightUpLeg -104.008731 -9.719387 36.679115
RightLeg 126.071145 -0.000000 -0.000000
RightFoot 29.650222 -11.337903 4.154565
RightToeBase 38.869992 -0.000000 -0.000000
1839
root 21.730525 5.592651 -15.018443 -191.600399 -13.655175 -222.316548
Spine 37.079297 -8.019113 -13.968115
Head 4.294996 29.784827 -31.592725
LeftShoulder -14.955547 -20.776558 -13.118345
LeftArm -25.362357 4.803503 -60.873075
LeftForeArm -14.963440 -0.000000 22.377074
LeftHand -2.365833 -0.000000 -8.777494
LeftHandThumb1 -26.253704 0.000000 33.147579
RightShoulder -2.747191 -24.007016 -21.077280
RightArm -9.494785 -26.915441 69.764290
RightForeArm -57.276772 -0.000000 77.470475
RightHand -8.215439 -0.000000 -11.296984
RightHandThumb1 -24.326973 -0.000000 -32.862282
LeftUpLeg -12.350989 21.219816 17.203911
LeftLeg 148.027821 -0.000000 -0.000000
LeftFoot 47.547884 2.187514 19.567262
LeftToeBase 37.624399 -0.000000 -0.000000
RightUpLeg -103.830031 -9.758103 36.416731
RightLeg 125.950152 -0.000000 -0.000000
RightFoot 29.563055 -11.581406 4.098749
RightToeBase 38.881146 -0.000000 -0.000000
1840
root 21.791480 5.606526 -15.015578 -191.492954 -13.661678 -222.708146
Spine 37.034005 -7.911772 -14.138642
Head 4.695397 30.703448 -31.628287
LeftShoulder -14.990607 -20.869596 -13.694589
LeftArm -24.732327 5.590225 -60.767975
LeftForeArm -15.722572 -0.000000 21.200148
LeftHand -2.267740 -0.000000 -9.605214
LeftHandThumb1 -26.253704 0.000000 33.147579
RightShoulder -2.729778 -24.013556 -21.232089
RightArm -9.622882 -27.244060 70.081179
RightForeArm -57.293125 0.000000 77.596020
RightHand -8.234669 -0.000000 -11.406314
RightHandThumb1 -24.326973 -0.000000 -32.862282
LeftUpLeg -12.484863 21.236136 16.924068
LeftLeg 147.859981 -0.000000 -0.000000
LeftFoot 47.715511 2.099618 19.560429
LeftToeBase 37.966116 -0.000000 -0.000000
RightUpLeg -103.681159 -9.764880 36.182421
RightLeg 125.844218 -0.000000 -0.000000
RightFoot 29.460068 -11.739689 4.086614
RightToeBase 38.723832 -0.000000 -0.000000
1841
root 21.853807 5.620204 -15.016361 -191.414800 -13.642563 -223.046996
Spine 37.008682 -7.841489 -14.281820
Head 5.043825 31.644260 -31.720483
LeftShoulder -15.018325 -21.066423 -14.244234
LeftArm -24.293927 6.553797 -60.772157
LeftForeArm -16.904220 -0.000000 20.146945
LeftHand -2.032763 -0.000000 -9.960650
LeftHandThumb1 -26.253704 0.000000 33.147579
RightShoulder -2.674148 -24.064041 -21.419506
RightArm -9.681486 -27.456787 70.399969
RightForeArm -57.313307 -0.000000 77.693610
RightHand -8.217992 -0.000000 -11.546724
RightHandThumb1 -24.326973 -0.000000 -32.862282
LeftUpLeg -12.606295 21.235314 16.705951
LeftLeg 147.731815 -0.000000 -0.000000
LeftFoot 47.822973 1.976086 19.491995
LeftToeBase 38.274812 -0.000000 -0.000000
RightUpLeg -103.511978 -9.777288 36.007269
RightLeg 125.703713 -0.000000 -0.000000
RightFoot 29.504037 -11.961108 4.062618
RightToeBase 38.591903 -0.000000 -0.000000
1842
root 21.917029 5.632877 -15.017945 -191.314812 -13.617160 -223.450193
Spine 36.982135 -7.706422 -14.526339
Head 5.375233 32.537387 -31.737233
LeftShoulder -15.070670 -21.153643 -14.688173
LeftArm -23.716099 7.222695 -60.749894
LeftForeArm -17.722129 0.000000 19.111047
LeftHand -1.769882 0.000000 -10.232201
LeftHandThumb1 -26.253704 0.000000 33.147579
RightShoulder -2.681233 -24.129465 -21.455977
RightArm -9.742835 -27.653716 70.634578
RightForeArm -57.299309 -0.000000 77.790298
RightHand -8.123627 -0.000000 -11.815553
RightHandThumb1 -24.326973 -0.000000 -32.862282
LeftUpLeg -12.716033 21.338466 16.425359
LeftLeg 147.566736 -0.000000 -0.000000
LeftFoot 48.102930 2.152093 19.453508
LeftToeBase 38.724320 -0.000000 -0.000000
RightUpLeg -103.351250 -9.730733 35.777739
RightLeg 125.576416 -0.000000 -0.000000
RightFoot 29.524943 -12.222835 4.015546
RightToeBase 38.592046 -0.000000 -0.000000
1843
root 21.981577 5.646166 -15.017997 -191.193870 -13.565075 -223.811307
Spine 36.922212 -7.589057 -14.730924
Head 5.716433 33.421452 -31.797435
LeftShoulder -15.092212 -21.298957 -15.122915
LeftArm -23.296840 7.915747 -60.733413
LeftForeArm -18.440031 -0.000000 18.312465
LeftHand -1.426737 -0.000000 -10.114119
LeftHandThumb1 -26.253704 0.000000 33.147579
RightShoulder -2.656447 -24.279588 -21.475623
RightArm -9.725431 -27.749807 70.827370
RightForeArm -57.288072 -0.000000 77.859409
RightHand -8.015334 0.000000 -12.112997
RightHandThumb1 -24.326973 -0.000000 -32.862282
LeftUpLeg -12.835809 21.410924 16.237581
LeftLeg 147.545525 -0.000000 -0.000000
LeftFoot 47.710088 2.007461 19.597858
LeftToeBase 39.145054 -0.000000 -0.000000
RightUpLeg -103.195534 -9.669767 35.593972
RightLeg 125.440119 -0.000000 -0.000000
RightFoot 29.521304 -12.465307 3.942847
RightToeBase 38.599347 -0.000000 -0.000000
1844
root 22.040600 5.667185 -15.018713 -191.095271 -13.557301 -224.254815
Spine 36.948747 -7.507073 -15.082025
Head 5.916460 34.291070 -31.906971
LeftShoulder -15.115592 -21.537048 -15.433181
LeftArm -23.089572 8.390935 -60.737275
LeftForeArm -18.791977 -0.000000 17.808462
LeftHand -1.052004 -0.000000 -9.656528
LeftHandThumb1 -26.253704 0.000000 33.147579
RightShoulder -2.631207 -24.266208 -21.433136
RightArm -9.841832 -27.853389 71.054707
RightForeArm -57.227398 0.000000 77.917037
RightHand -7.882513 -0.000000 -12.494463
RightHandThumb1 -24.326973 -0.000000 -32.862282
LeftUpLeg -12.941601 21.487881 15.930121
LeftLeg 147.433145 -0.000000 -0.000000
LeftFoot 47.702663 1.973686 19.596275
LeftToeBase 39.293756 -0.000000 -0.000000
RightUpLeg -103.063003 -9.683390 35.315075
RightLeg 125.323976 -0.000000 -0.000000
RightFoot 29.623472 -12.721189 3.885488
RightToeBase 38.425978 -0.000000 -0.000000
1845
root 22.104643 5.685513 -15.021872 -190.973500 -13.488620 -224.652100
Spine 36.906008 -7.390304 -15.369025
Head 6.203926 35.173373 -32.023663
LeftShoulder -15.107667 -21.658825 -15.738994
LeftArm -22.820142 8.657071 -60.685941
LeftForeArm -18.872868 -0.000000 17.393518
LeftHand -0.742824 0.000000 -8.898112
LeftHandThumb1 -26.253704 0.000000 33.147579
RightShoulder -2.654384 -24.292096 -21.404013
RightArm -9.862353 -27.958390 71.289454
RightForeArm -57.199626 -0.000000 77.937555
RightHand -7.816058 -0.000000 -12.750430
RightHandThumb1 -24.326973 -0.000000 -32.862282
LeftUpLeg -13.038758 21.636567 15.737777
LeftLeg 147.317092 -0.000000 -0.000000
LeftFoot 47.640082 1.953788 19.690306
LeftToeBase 39.640923 -0.000000 -0.000000
RightUpLeg -102.890078 -9.618306 35.071711
RightLeg 125.212579 -0.000000 -0.000000
RightFoot 29.606877 -12.869001 3.776014
RightToeBase 38.293891 -0.000000 -0.000000
1846
root 22.167789 5.704878 -15.022729 -190.824905 -13.412829 -225.046440
Spine 36.859918 -7.289146 -15.654384
Head 6.344509 36.018439 -32.268820
LeftShoulder -15.119478 -21.768001 -16.012597
LeftArm -22.556895 8.853295 -60.605320
LeftForeArm -19.133398 -0.000000 17.040161
LeftHand -0.624688 -0.000000 -7.992577
LeftHandThumb1 -26.253704 0.000000 33.147579
RightShoulder -2.706839 -24.267249 -21.330638
RightArm -9.936742 -27.987258 71.524602
RightForeArm -57.275706 -0.000000 77.990938
RightHand -7.704809 -0.000000 -12.944548
RightHandThumb1 -24.326973 -0.000000 -32.862282
LeftUpLeg -13.150043 21.735474 15.543517
LeftLeg 147.185414 -0.000000 -0.000000
LeftFoot 47.499632 1.827560 19.568978
LeftToeBase 40.242655 -0.000000 -0.000000
RightUpLeg -102.760000 -9.527512 34.856848
RightLeg 125.056712 -0.000000 -0.000000
RightFoot 29.762747 -13.187243 3.679281
RightToeBase 38.125941 -0.000000 -0.000000
1847
root 22.227590 5.723950 -15.029191 -190.697121 -13.309621 -225.451861
Spine 36.815484 -7.154734 -15.948911
Head 6.456655 36.787524 -32.553497
LeftShoulder -15.117671 -21.842431 -16.214913
LeftArm -22.334181 8.911865 -60.539326
LeftForeArm -19.721850 -0.000000 16.736309
LeftHand -0.547941 -0.000000 -7.359394
LeftHandThumb1 -26.253704 0.000000 33.147579
RightShoulder -2.774125 -24.249161 -21.289663
RightArm -9.997736 -28.025799 71.800434
RightForeArm -57.392911 -0.000000 78.008909
RightHand -7.575498 -0.000000 -13.191552
RightHandThumb1 -24.326973 -0.000000 -32.862282
LeftUpLeg -13.226889 21.898623 15.395849
LeftLeg 147.039784 -0.000000 -0.000000
LeftFoot 47.522874 1.703235 19.583338
LeftToeBase 40.861321 -0.000000 -0.000000
RightUpLeg -102.608642 -9.429066 34.606776
RightLeg 124.937428 -0.000000 -0.000000
RightFoot 29.886744 -13.424696 3.601120
RightToeBase 37.925702 -0.000000 -0.000000
1848
root 22.287591 5.742745 -15.033353 -190.535342 -13.224424 -225.850423
Spine 36.748834 -7.044393 -16.242619
Head 6.503176 37.478950 -32.898319
LeftShoulder -15.147235 -21.928680 -16.398768
LeftArm -22.068039 8.902645 -60.388144
LeftForeArm -20.477689 -0.000000 16.373362
LeftHand -0.552156 -0.000000 -6.305599
LeftHandThumb1 -26.253704 0.000000 33.147579
RightShoulder -2.823884 -24.312311 -21.213297
RightArm -10.015610 -27.937577 72.060454
RightForeArm -57.551745 -0.000000 78.063883
RightHand -7.428677 -0.000000 -13.347166
RightHandThumb1 -24.326973 -0.000000 -32.862282
LeftUpLeg -13.346140 22.142677 15.194531
LeftLeg 146.951716 -0.000000 -0.000000
LeftFoot 47.365384 1.857575 19.762136
LeftToeBase 41.231421 -0.000000 -0.000000
RightUpLeg -102.488358 -9.320549 34.389826
RightLeg 124.823241 -0.000000 -0.000000
RightFoot 29.916276 -13.692032 3.469937
RightToeBase 37.856301 -0.000000 -0.000000
